Coordinates
version=1
nRows=17
nColumns=40
inDegrees=yes

Units are S.I. units (second, meters, Newtons, ...)
Angles are in degrees.

endheader
time	pelvis_tilt	pelvis_list	pelvis_rotation	pelvis_tx	pelvis_ty	pelvis_tz	hip_flexion_r	hip_adduction_r	hip_rotation_r	knee_angle_r	knee_angle_r_beta	ankle_angle_r	subtalar_angle_r	mtp_angle_r	hip_flexion_l	hip_adduction_l	hip_rotation_l	knee_angle_l	knee_angle_l_beta	ankle_angle_l	subtalar_angle_l	mtp_angle_l	lumbar_extension	lumbar_bending	lumbar_rotation	arm_flex_r	arm_add_r	arm_rot_r	elbow_flex_r	pro_sup_r	wrist_flex_r	wrist_dev_r	arm_flex_l	arm_add_l	arm_rot_l	elbow_flex_l	pro_sup_l	wrist_flex_l	wrist_dev_l
     40.63000000	     -6.43560572	     -5.69517365	     -2.14819067	      0.99352085	      0.92874246	      0.42509720	     37.74258341	     -4.18641748	     -5.13340617	     74.59941953	     74.59941953	      1.07212072	    -18.04725872	      4.46745886	     19.28751217	     -7.10185148	     -4.80019529	     24.77058970	     24.77058970	     14.04295139	    -10.89913535	      1.85875221	    -12.06431027	      5.09290514	      2.74394862	     21.64452744	    -14.01074208	      4.27944675	     82.86395533	     45.27341128	      0.00000000	      0.00000000	     10.26968744	    -15.69151078	      3.73082020	     51.70655556	     46.41918536	      0.00000000	      0.00000000
     40.64164286	     -6.35650307	     -5.83188542	     -2.41756717	      0.99232504	      0.92904553	      0.42490188	     38.87706326	     -4.02131448	     -5.15075201	     73.76112849	     73.76112849	      1.10928535	    -17.88547670	      4.34494887	     18.50978046	     -7.19573141	     -4.78492656	     24.55602796	     24.55602796	     14.34731890	    -11.31073656	      1.97133128	    -12.26235108	      5.36229368	      3.40271014	     19.40594545	    -14.60137822	      4.17175446	     80.00918561	     45.35862283	      0.00000000	      0.00000000	     12.02338246	    -15.90736698	      3.41330463	     53.55362503	     46.49250550	      0.00000000	      0.00000000
     40.65328571	     -6.25386216	     -5.91702323	     -2.63226323	      0.99121835	      0.92925406	      0.42471564	     39.86792714	     -3.95817715	     -5.24879251	     72.76846448	     72.76846448	      0.99614118	    -17.74254577	      3.79993437	     17.75632346	     -7.27387480	     -4.92548747	     24.43901949	     24.43901949	     14.75888329	    -11.36146675	      2.00379337	    -12.40101055	      5.53217865	      3.15613445	     18.31202257	    -13.74435634	      2.98265129	     74.65858512	     45.55885652	      0.00000000	      0.00000000	     12.68733075	    -16.84830630	      3.15099700	     57.04078218	     46.59815458	      0.00000000	      0.00000000
     40.66492857	     -6.15057601	     -6.02581462	     -2.84985138	      0.99013072	      0.92943727	      0.42462650	     40.73914152	     -3.83914823	     -5.36098431	     71.57210326	     71.57210326	      0.90948064	    -17.53816857	      3.50823215	     16.99961720	     -7.39319458	     -5.12034828	     24.30731228	     24.30731228	     15.18112485	    -11.30702219	      1.98810223	    -12.58836924	      5.72865942	      3.05966824	     17.24595809	    -13.53558517	      2.80072326	     69.81037154	     45.70218437	      0.00000000	      0.00000000	     13.55997495	    -17.49029569	      2.35282386	     60.10637522	     46.75117386	      0.00000000	      0.00000000
     40.67657143	     -6.05391236	     -6.14534055	     -3.08223438	      0.98919071	      0.92962834	      0.42455655	     41.45185646	     -3.69920435	     -5.50678846	     70.09245778	     70.09245778	      0.90736243	    -17.25987076	      3.56423796	     16.20681021	     -7.50841770	     -5.29209519	     24.10048171	     24.10048171	     15.54644457	    -11.34414520	      1.94860148	    -12.80665068	      5.94412932	      3.78927414	     15.29968692	    -14.23127851	      2.84557103	     66.89488577	     45.78395121	      0.00000000	      0.00000000	     15.27769931	    -17.51112652	      1.84018903	     62.09522605	     46.84063611	      0.00000000	      0.00000000
     40.68821429	     -6.02159449	     -6.23032303	     -3.29118306	      0.98822191	      0.92978965	      0.42468842	     42.05323641	     -3.59827295	     -5.71906359	     68.25758465	     68.25758465	      0.76070629	    -16.97903510	      3.27357264	     15.49987376	     -7.61656732	     -5.53413002	     23.90248279	     23.90248279	     15.91087170	    -11.21902053	      1.91384200	    -12.90662090	      6.06826713	      3.26453716	     15.30205526	    -13.24911972	      1.93620702	     59.94218834	     46.02323033	      0.00000000	      0.00000000	     15.63195278	    -18.50014251	      1.04648222	     65.46563466	     46.98724473	      0.00000000	      0.00000000
     40.69985714	     -5.97364345	     -6.33142222	     -3.47421312	      0.98745371	      0.92988687	      0.42481375	     42.44962984	     -3.45295126	     -5.93700264	     66.10925509	     66.10925509	      0.85771795	    -16.55261976	      3.32239262	     14.70507689	     -7.69974947	     -5.66538279	     23.58505163	     23.58505163	     16.25315747	    -11.22273057	      1.88824682	    -13.06600346	      6.27334926	      3.84515843	     13.36538082	    -13.95440941	      2.05729145	     57.38240358	     46.08957052	      0.00000000	      0.00000000	     17.19289101	    -18.39706672	      0.48566490	     67.43042879	     47.07532328	      0.00000000	      0.00000000
     40.71150000	     -6.03174427	     -6.34360084	     -3.68611760	      0.98668544	      0.92985210	      0.42511877	     42.76182003	     -3.36781038	     -6.15041524	     63.52527880	     63.52527880	      0.64761486	    -16.17210637	      2.45650802	     14.03799260	     -7.73264195	     -5.93875126	     23.29330663	     23.29330663	     16.57762598	    -11.05616828	      1.77895373	    -13.04137697	      6.32847747	      3.19214652	     13.79534029	    -13.12253733	      1.47190773	     49.84422776	     46.33568844	      0.00000000	      0.00000000	     17.27015762	    -19.35866542	     -0.51837624	     71.08365498	     47.23876759	      0.00000000	      0.00000000
     40.72314286	     -6.06688683	     -6.33830956	     -3.87440878	      0.98604931	      0.92984702	      0.42549076	     42.82298107	     -3.28005451	     -6.40198189	     60.53336587	     60.53336587	      0.46923323	    -15.69004500	      1.49459853	     13.28133332	     -7.71380263	     -6.12570961	     22.88445066	     22.88445066	     16.84306210	    -11.00400142	      1.71319000	    -13.09557399	      6.38489681	      2.99359772	     13.25930337	    -13.09495872	      1.62818510	     44.77814787	     46.44145564	      0.00000000	      0.00000000	     17.75789503	    -19.63082834	     -2.06886420	     74.23793691	     47.44044832	      0.00000000	      0.00000000
     40.73478571	     -6.13243706	     -6.31711346	     -4.05287034	      0.98548990	      0.92973915	      0.42596615	     42.69498645	     -3.19280908	     -6.71906659	     57.14017094	     57.14017094	      0.38770487	    -15.02238395	      0.57595477	     12.54019530	     -7.69306342	     -6.37105366	     22.44678861	     22.44678861	     17.11177507	    -10.87212143	      1.56013418	    -13.12919213	      6.43720568	      3.05075493	     12.36523768	    -13.25436345	      1.60471106	     40.38054474	     46.53679451	      0.00000000	      0.00000000	     18.50059711	    -19.98504649	     -2.73560671	     77.13783317	     47.57349307	      0.00000000	      0.00000000
     40.74642857	     -6.26318651	     -6.24011851	     -4.21219935	      0.98507199	      0.92946915	      0.42653743	     42.40762774	     -3.11692006	     -7.04943878	     53.35341026	     53.35341026	      0.32633665	    -14.18374872	     -0.48393764	     11.82910068	     -7.61174285	     -6.61578072	     21.94509274	     21.94509274	     17.33174202	    -10.68997357	      1.36039253	    -13.07628691	      6.42184730	      3.09862667	     11.41985906	    -13.38744088	      1.41094151	     36.26520913	     46.63348569	      0.00000000	      0.00000000	     19.12194478	    -20.26551499	     -3.47468260	     80.14424315	     47.71240932	      0.00000000	      0.00000000
     40.75807143	     -6.38256715	     -6.12457357	     -4.35611918	      0.98480102	      0.92910951	      0.42719564	     41.90593648	     -3.04685146	     -7.42134335	     49.28579367	     49.28579367	      0.70912291	    -12.90881018	     -0.54706543	     11.07798497	     -7.48619722	     -6.87450803	     21.40431922	     21.40431922	     17.59979124	    -10.47211244	      1.26734969	    -13.04618729	      6.37474244	      3.66621604	      9.43750577	    -13.97969194	      1.42511339	     34.29756118	     46.68266496	      0.00000000	      0.00000000	     20.33167104	    -20.09814758	     -3.85532554	     82.44965650	     47.79362571	      0.00000000	      0.00000000
     40.76971429	     -6.62214787	     -6.05188179	     -4.43487910	      0.98463077	      0.92846159	      0.42802877	     41.26632217	     -2.89016635	     -7.92171713	     44.84555009	     44.84555009	      1.08736483	    -11.56409296	     -0.40094392	     10.45611697	     -7.42035592	     -7.04152293	     20.85526276	     20.85526276	     17.87957594	    -10.21097481	      1.13859700	    -12.84462874	      6.39622739	      3.84472260	      7.55300600	    -14.39283663	      1.42433339	     32.70570117	     46.72584826	      0.00000000	      0.00000000	     21.24696432	    -20.24877465	     -4.12656211	     84.37411580	     47.85616479	      0.00000000	      0.00000000
     40.78135714	     -6.68163682	     -5.88077547	     -4.46477153	      0.98489559	      0.92787083	      0.42882165	     40.19696130	     -2.82752286	     -8.46297023	     40.17958603	     40.17958603	      1.52826858	     -9.75623515	     -0.36377787	      9.57783675	     -7.24423167	     -7.35370766	     20.23060606	     20.23060606	     18.15627501	     -9.73404080	      0.88980231	    -12.80632544	      6.30832693	      4.28346657	      5.69049340	    -14.80229156	      1.40204964	     30.73190349	     46.78536646	      0.00000000	      0.00000000	     22.05663377	    -20.15547817	     -4.27383430	     87.27410692	     47.93049860	      0.00000000	      0.00000000
     40.79300000	     -6.82282339	     -5.58749579	     -4.46501757	      0.98531626	      0.92674478	      0.42989589	     39.07738267	     -2.79047491	     -8.97832382	     35.41585227	     35.41585227	      1.67862775	     -7.98230545	     -0.98475940	      8.78842407	     -6.99681980	     -7.83098511	     19.59859237	     19.59859237	     18.24228333	     -9.03937656	     -0.16232573	    -12.64777827	      5.99017390	      3.30912913	      5.42812174	    -14.37263837	      0.84480787	     26.76587890	     46.94242241	      0.00000000	      0.00000000	     21.31793443	    -21.28562168	     -5.43961993	     92.17723872	     48.12789960	      0.00000000	      0.00000000
     40.80464286	     -6.90519824	     -5.28842953	     -4.41050555	      0.98608884	      0.92552826	      0.43100212	     37.77423098	     -2.76582763	     -9.63991521	     30.76776239	     30.76776239	      2.18049977	     -5.71847958	     -0.17339880	      7.87922330	     -6.69217695	     -8.11506853	     18.90144800	     18.90144800	     18.57413449	     -8.42571017	     -0.52044750	    -12.51384281	      5.71145865	      3.57038643	      3.36709035	    -14.61870996	      0.73104605	     25.66592310	     46.96491121	      0.00000000	      0.00000000	     22.07244641	    -21.21079603	     -5.76202198	     94.71981642	     48.21229681	      0.00000000	      0.00000000
     40.81628571	     -7.03500440	     -5.05456170	     -4.26789526	      0.98714349	      0.92399554	      0.43227181	     36.38192499	     -2.57674217	    -10.22250003	     26.20778267	     26.20778267	      2.42864112	     -3.88372601	      0.92370542	      7.05529744	     -6.47071500	     -8.29381446	     18.28219004	     18.28219004	     18.91454651	     -7.90929073	     -0.80390065	    -12.16788892	      5.55398488	      3.48798214	      1.35789810	    -14.78415638	      0.65449722	     24.95334405	     46.97642198	      0.00000000	      0.00000000	     22.64550473	    -21.39747044	     -5.93114323	     96.68437390	     48.27000221	      0.00000000	      0.00000000
